<svg width="38" height="35" viewBox="0 0 38 35" fill="none" xmlns="http://www.w3.org/2000/svg">
<path d="M1 18.8933C1 21.8267 3.07323 24.3823 5.99754 24.8095C8.00431 25.1028 10.0314 25.3283 12.0769 25.486V34L19.6018 26.5273C20.1122 26.0238 20.7971 25.7332 21.5163 25.7152C25.0266 25.6187 28.5281 25.3163 32.0025 24.8095C34.9268 24.3823 37 21.8285 37 18.8915V7.8585C37 4.9215 34.9268 2.36767 32.0025 1.9405C27.6972 1.31298 23.3514 0.998643 19 1C14.584 1 10.2418 1.32084 5.99754 1.9405C3.07323 2.36767 1 4.92334 1 7.8585V18.8915V18.8933Z" fill="#007AFF" stroke="#007AFF" stroke-width="2" stroke-linecap="round" stroke-linejoin="round"/>
<path d="M8.31108 19.1534C7.62547 19.1534 7.01184 18.9773 6.47017 18.625C5.9285 18.2727 5.50047 17.7614 5.18608 17.0909C4.87169 16.4205 4.71449 15.6061 4.71449 14.6477C4.71449 13.678 4.87358 12.8598 5.19176 12.1932C5.51373 11.5227 5.94744 11.017 6.4929 10.6761C7.03835 10.3314 7.64631 10.1591 8.31676 10.1591C8.82813 10.1591 9.24858 10.2462 9.57812 10.4205C9.90767 10.5909 10.169 10.7973 10.3622 11.0398C10.5554 11.2784 10.705 11.5038 10.8111 11.7159H10.8963V7.36364H12.9588V19H10.9361V17.625H10.8111C10.705 17.8371 10.5516 18.0625 10.3509 18.3011C10.1501 18.536 9.88494 18.7367 9.5554 18.9034C9.22585 19.0701 8.81108 19.1534 8.31108 19.1534ZM8.88494 17.4659C9.32055 17.4659 9.69176 17.3485 9.99858 17.1136C10.3054 16.875 10.5384 16.5436 10.6974 16.1193C10.8565 15.6951 10.9361 15.2008 10.9361 14.6364C10.9361 14.072 10.8565 13.5814 10.6974 13.1648C10.5421 12.7481 10.3111 12.4242 10.0043 12.1932C9.70123 11.9621 9.32813 11.8466 8.88494 11.8466C8.42661 11.8466 8.04403 11.9659 7.73722 12.2045C7.4304 12.4432 7.19934 12.7727 7.04403 13.1932C6.88873 13.6136 6.81108 14.0947 6.81108 14.6364C6.81108 15.1818 6.88873 15.6686 7.04403 16.0966C7.20313 16.5208 7.43608 16.8561 7.7429 17.1023C8.0535 17.3447 8.43419 17.4659 8.88494 17.4659ZM15.1506 19V10.2727H17.2074V19H15.1506ZM16.1847 9.03409C15.8589 9.03409 15.5786 8.92614 15.3438 8.71023C15.1089 8.49053 14.9915 8.22727 14.9915 7.92045C14.9915 7.60985 15.1089 7.34659 15.3438 7.13068C15.5786 6.91098 15.8589 6.80114 16.1847 6.80114C16.5142 6.80114 16.7945 6.91098 17.0256 7.13068C17.2604 7.34659 17.3778 7.60985 17.3778 7.92045C17.3778 8.22727 17.2604 8.49053 17.0256 8.71023C16.7945 8.92614 16.5142 9.03409 16.1847 9.03409ZM23.6804 10.2727V11.8636H18.6634V10.2727H23.6804ZM19.902 8.18182H21.9588V16.375C21.9588 16.6515 22.0005 16.8636 22.0838 17.0114C22.1709 17.1553 22.2846 17.2538 22.4247 17.3068C22.5649 17.3598 22.7202 17.3864 22.8906 17.3864C23.0194 17.3864 23.1368 17.3769 23.2429 17.358C23.3527 17.339 23.4361 17.322 23.4929 17.3068L23.8395 18.9148C23.7296 18.9527 23.5724 18.9943 23.3679 19.0398C23.1671 19.0852 22.9209 19.1117 22.6293 19.1193C22.1141 19.1345 21.6501 19.0568 21.2372 18.8864C20.8243 18.7121 20.4967 18.4432 20.2543 18.0795C20.0156 17.7159 19.8982 17.2614 19.902 16.7159V8.18182ZM29.1136 19.1705C28.2614 19.1705 27.5227 18.983 26.8977 18.608C26.2727 18.233 25.7879 17.7083 25.4432 17.0341C25.1023 16.3598 24.9318 15.572 24.9318 14.6705C24.9318 13.7689 25.1023 12.9792 25.4432 12.3011C25.7879 11.6231 26.2727 11.0966 26.8977 10.7216C27.5227 10.3466 28.2614 10.1591 29.1136 10.1591C29.9659 10.1591 30.7045 10.3466 31.3295 10.7216C31.9545 11.0966 32.4375 11.6231 32.7784 12.3011C33.1231 12.9792 33.2955 13.7689 33.2955 14.6705C33.2955 15.572 33.1231 16.3598 32.7784 17.0341C32.4375 17.7083 31.9545 18.233 31.3295 18.608C30.7045 18.983 29.9659 19.1705 29.1136 19.1705ZM29.125 17.5227C29.5871 17.5227 29.9735 17.3958 30.2841 17.142C30.5947 16.8845 30.8258 16.5398 30.9773 16.108C31.1326 15.6761 31.2102 15.1951 31.2102 14.6648C31.2102 14.1307 31.1326 13.6477 30.9773 13.2159C30.8258 12.7803 30.5947 12.4337 30.2841 12.1761C29.9735 11.9186 29.5871 11.7898 29.125 11.7898C28.6515 11.7898 28.2576 11.9186 27.9432 12.1761C27.6326 12.4337 27.3996 12.7803 27.2443 13.2159C27.0928 13.6477 27.017 14.1307 27.017 14.6648C27.017 15.1951 27.0928 15.6761 27.2443 16.108C27.3996 16.5398 27.6326 16.8845 27.9432 17.142C28.2576 17.3958 28.6515 17.5227 29.125 17.5227Z" fill="white"/>
</svg>
