<svg width="28" height="28" viewBox="0 0 28 28" fill="none" xmlns="http://www.w3.org/2000/svg">
<rect y="4" width="28" height="20" rx="5.2" fill="#171717"/>
<path d="M5.42614 11.294V9.77273H12.5938V11.294H9.92188V18.5H8.09801V11.294H5.42614ZM17.5097 15.4659H19.0779L19.8663 16.4801L20.6418 17.3835L22.1035 19.2159H20.3819L19.3762 17.9801L18.8606 17.2472L17.5097 15.4659ZM22.2356 14.1364C22.2356 15.0881 22.0552 15.8977 21.6944 16.5653C21.3364 17.233 20.8478 17.7429 20.2285 18.0952C19.612 18.4446 18.9188 18.6193 18.1489 18.6193C17.3734 18.6193 16.6774 18.4432 16.0609 18.0909C15.4444 17.7386 14.9572 17.2287 14.5992 16.5611C14.2413 15.8935 14.0623 15.0852 14.0623 14.1364C14.0623 13.1847 14.2413 12.375 14.5992 11.7074C14.9572 11.0398 15.4444 10.5312 16.0609 10.1818C16.6774 9.82955 17.3734 9.65341 18.1489 9.65341C18.9188 9.65341 19.612 9.82955 20.2285 10.1818C20.8478 10.5312 21.3364 11.0398 21.6944 11.7074C22.0552 12.375 22.2356 13.1847 22.2356 14.1364ZM20.3649 14.1364C20.3649 13.5199 20.2725 13 20.0879 12.5767C19.9061 12.1534 19.6489 11.8324 19.3166 11.6136C18.9842 11.3949 18.595 11.2855 18.1489 11.2855C17.7029 11.2855 17.3137 11.3949 16.9813 11.6136C16.6489 11.8324 16.3904 12.1534 16.2058 12.5767C16.0239 13 15.933 13.5199 15.933 14.1364C15.933 14.7528 16.0239 15.2727 16.2058 15.696C16.3904 16.1193 16.6489 16.4403 16.9813 16.6591C17.3137 16.8778 17.7029 16.9872 18.1489 16.9872C18.595 16.9872 18.9842 16.8778 19.3166 16.6591C19.6489 16.4403 19.9061 16.1193 20.0879 15.696C20.2725 15.2727 20.3649 14.7528 20.3649 14.1364Z" fill="white"/>
</svg>
